<svg xmlns="http://www.w3.org/2000/svg" viewBox="0 0 200 200">
  <rect x="0" y="0" width="200" height="200" fill="#00000A"/>

  <!-- Barril del objetivo -->
  <circle cx="100" cy="100" r="97" fill="#07070E"/>
  <circle cx="100" cy="100" r="97" fill="none" stroke="rgba(255,255,255,.10)" stroke-width="1"/>

  <!-- Marcas del anillo, rotadas a la posición final de "enfoque bloqueado" -->
  <g transform="rotate(34 100 100)">
    <line x1="100" y1="6.5"  x2="100" y2="12" stroke="rgba(255,255,255,.4)"  stroke-width="2.2" transform="rotate(0 100 100)"/>
    <line x1="100" y1="8.5"  x2="100" y2="12" stroke="rgba(255,255,255,.18)" stroke-width="1.5" transform="rotate(7.5 100 100)"/>
    <line x1="100" y1="8.5"  x2="100" y2="12" stroke="rgba(255,255,255,.18)" stroke-width="1.5" transform="rotate(15 100 100)"/>
    <line x1="100" y1="8.5"  x2="100" y2="12" stroke="rgba(255,255,255,.18)" stroke-width="1.5" transform="rotate(22.5 100 100)"/>
    <line x1="100" y1="6.5"  x2="100" y2="12" stroke="rgba(255,255,255,.4)"  stroke-width="2.2" transform="rotate(30 100 100)"/>
    <line x1="100" y1="8.5"  x2="100" y2="12" stroke="rgba(255,255,255,.18)" stroke-width="1.5" transform="rotate(37.5 100 100)"/>
    <line x1="100" y1="8.5"  x2="100" y2="12" stroke="rgba(255,255,255,.18)" stroke-width="1.5" transform="rotate(45 100 100)"/>
    <line x1="100" y1="8.5"  x2="100" y2="12" stroke="rgba(255,255,255,.18)" stroke-width="1.5" transform="rotate(52.5 100 100)"/>
    <line x1="100" y1="6.5"  x2="100" y2="12" stroke="rgba(255,255,255,.4)"  stroke-width="2.2" transform="rotate(60 100 100)"/>
    <line x1="100" y1="8.5"  x2="100" y2="12" stroke="rgba(255,255,255,.18)" stroke-width="1.5" transform="rotate(67.5 100 100)"/>
    <line x1="100" y1="8.5"  x2="100" y2="12" stroke="rgba(255,255,255,.18)" stroke-width="1.5" transform="rotate(75 100 100)"/>
    <line x1="100" y1="8.5"  x2="100" y2="12" stroke="rgba(255,255,255,.18)" stroke-width="1.5" transform="rotate(82.5 100 100)"/>
    <line x1="100" y1="6.5"  x2="100" y2="12" stroke="rgba(255,255,255,.4)"  stroke-width="2.2" transform="rotate(90 100 100)"/>
    <line x1="100" y1="8.5"  x2="100" y2="12" stroke="rgba(255,255,255,.18)" stroke-width="1.5" transform="rotate(97.5 100 100)"/>
    <line x1="100" y1="8.5"  x2="100" y2="12" stroke="rgba(255,255,255,.18)" stroke-width="1.5" transform="rotate(105 100 100)"/>
    <line x1="100" y1="8.5"  x2="100" y2="12" stroke="rgba(255,255,255,.18)" stroke-width="1.5" transform="rotate(112.5 100 100)"/>
    <line x1="100" y1="6.5"  x2="100" y2="12" stroke="rgba(255,255,255,.4)"  stroke-width="2.2" transform="rotate(120 100 100)"/>
    <line x1="100" y1="8.5"  x2="100" y2="12" stroke="rgba(255,255,255,.18)" stroke-width="1.5" transform="rotate(127.5 100 100)"/>
    <line x1="100" y1="8.5"  x2="100" y2="12" stroke="rgba(255,255,255,.18)" stroke-width="1.5" transform="rotate(135 100 100)"/>
    <line x1="100" y1="8.5"  x2="100" y2="12" stroke="rgba(255,255,255,.18)" stroke-width="1.5" transform="rotate(142.5 100 100)"/>
    <line x1="100" y1="6.5"  x2="100" y2="12" stroke="rgba(255,255,255,.4)"  stroke-width="2.2" transform="rotate(150 100 100)"/>
    <line x1="100" y1="8.5"  x2="100" y2="12" stroke="rgba(255,255,255,.18)" stroke-width="1.5" transform="rotate(157.5 100 100)"/>
    <line x1="100" y1="8.5"  x2="100" y2="12" stroke="rgba(255,255,255,.18)" stroke-width="1.5" transform="rotate(165 100 100)"/>
    <line x1="100" y1="8.5"  x2="100" y2="12" stroke="rgba(255,255,255,.18)" stroke-width="1.5" transform="rotate(172.5 100 100)"/>
    <line x1="100" y1="6.5"  x2="100" y2="12" stroke="rgba(255,255,255,.4)"  stroke-width="2.2" transform="rotate(180 100 100)"/>
    <line x1="100" y1="8.5"  x2="100" y2="12" stroke="rgba(255,255,255,.18)" stroke-width="1.5" transform="rotate(187.5 100 100)"/>
    <line x1="100" y1="8.5"  x2="100" y2="12" stroke="rgba(255,255,255,.18)" stroke-width="1.5" transform="rotate(195 100 100)"/>
    <line x1="100" y1="8.5"  x2="100" y2="12" stroke="rgba(255,255,255,.18)" stroke-width="1.5" transform="rotate(202.5 100 100)"/>
    <line x1="100" y1="6.5"  x2="100" y2="12" stroke="rgba(255,255,255,.4)"  stroke-width="2.2" transform="rotate(210 100 100)"/>
    <line x1="100" y1="8.5"  x2="100" y2="12" stroke="rgba(255,255,255,.18)" stroke-width="1.5" transform="rotate(217.5 100 100)"/>
    <line x1="100" y1="8.5"  x2="100" y2="12" stroke="rgba(255,255,255,.18)" stroke-width="1.5" transform="rotate(225 100 100)"/>
    <line x1="100" y1="8.5"  x2="100" y2="12" stroke="rgba(255,255,255,.18)" stroke-width="1.5" transform="rotate(232.5 100 100)"/>
    <line x1="100" y1="6.5"  x2="100" y2="12" stroke="rgba(255,255,255,.4)"  stroke-width="2.2" transform="rotate(240 100 100)"/>
    <line x1="100" y1="8.5"  x2="100" y2="12" stroke="rgba(255,255,255,.18)" stroke-width="1.5" transform="rotate(247.5 100 100)"/>
    <line x1="100" y1="8.5"  x2="100" y2="12" stroke="rgba(255,255,255,.18)" stroke-width="1.5" transform="rotate(255 100 100)"/>
    <line x1="100" y1="8.5"  x2="100" y2="12" stroke="rgba(255,255,255,.18)" stroke-width="1.5" transform="rotate(262.5 100 100)"/>
    <line x1="100" y1="6.5"  x2="100" y2="12" stroke="rgba(255,255,255,.4)"  stroke-width="2.2" transform="rotate(270 100 100)"/>
    <line x1="100" y1="8.5"  x2="100" y2="12" stroke="rgba(255,255,255,.18)" stroke-width="1.5" transform="rotate(277.5 100 100)"/>
    <line x1="100" y1="8.5"  x2="100" y2="12" stroke="rgba(255,255,255,.18)" stroke-width="1.5" transform="rotate(285 100 100)"/>
    <line x1="100" y1="8.5"  x2="100" y2="12" stroke="rgba(255,255,255,.18)" stroke-width="1.5" transform="rotate(292.5 100 100)"/>
    <line x1="100" y1="6.5"  x2="100" y2="12" stroke="rgba(255,255,255,.4)"  stroke-width="2.2" transform="rotate(300 100 100)"/>
    <line x1="100" y1="8.5"  x2="100" y2="12" stroke="rgba(255,255,255,.18)" stroke-width="1.5" transform="rotate(307.5 100 100)"/>
    <line x1="100" y1="8.5"  x2="100" y2="12" stroke="rgba(255,255,255,.18)" stroke-width="1.5" transform="rotate(315 100 100)"/>
    <line x1="100" y1="8.5"  x2="100" y2="12" stroke="rgba(255,255,255,.18)" stroke-width="1.5" transform="rotate(322.5 100 100)"/>
    <line x1="100" y1="6.5"  x2="100" y2="12" stroke="rgba(255,255,255,.4)"  stroke-width="2.2" transform="rotate(330 100 100)"/>
    <line x1="100" y1="8.5"  x2="100" y2="12" stroke="rgba(255,255,255,.18)" stroke-width="1.5" transform="rotate(337.5 100 100)"/>
    <line x1="100" y1="8.5"  x2="100" y2="12" stroke="rgba(255,255,255,.18)" stroke-width="1.5" transform="rotate(345 100 100)"/>
    <line x1="100" y1="8.5"  x2="100" y2="12" stroke="rgba(255,255,255,.18)" stroke-width="1.5" transform="rotate(352.5 100 100)"/>
  </g>

  <!-- Anillo principal: verde de "enfoque bloqueado" -->
  <circle cx="100" cy="100" r="88" fill="none" stroke="#57e32c" stroke-width="3.2"/>

  <!-- Palas del diafragma, recortadas al interior, en verde de "enfoque bloqueado" -->
  <clipPath id="fsClip"><circle cx="100" cy="100" r="86"/></clipPath>
  <g clip-path="url(#fsClip)">
    <circle cx="100" cy="100" r="86" fill="#100F19"/>
    <g transform="rotate(0 100 100)"><g transform="rotate(26 178 100)"><path d="M178,100 L-120,100 L-120,300 L178,300 Z" fill="#0E0D17" stroke="#57e32c" stroke-width="2.6"/></g></g>
    <g transform="rotate(45 100 100)"><g transform="rotate(26 178 100)"><path d="M178,100 L-120,100 L-120,300 L178,300 Z" fill="#0E0D17" stroke="#57e32c" stroke-width="2.6"/></g></g>
    <g transform="rotate(90 100 100)"><g transform="rotate(26 178 100)"><path d="M178,100 L-120,100 L-120,300 L178,300 Z" fill="#0E0D17" stroke="#57e32c" stroke-width="2.6"/></g></g>
    <g transform="rotate(135 100 100)"><g transform="rotate(26 178 100)"><path d="M178,100 L-120,100 L-120,300 L178,300 Z" fill="#0E0D17" stroke="#57e32c" stroke-width="2.6"/></g></g>
    <g transform="rotate(180 100 100)"><g transform="rotate(26 178 100)"><path d="M178,100 L-120,100 L-120,300 L178,300 Z" fill="#0E0D17" stroke="#57e32c" stroke-width="2.6"/></g></g>
    <g transform="rotate(225 100 100)"><g transform="rotate(26 178 100)"><path d="M178,100 L-120,100 L-120,300 L178,300 Z" fill="#0E0D17" stroke="#57e32c" stroke-width="2.6"/></g></g>
    <g transform="rotate(270 100 100)"><g transform="rotate(26 178 100)"><path d="M178,100 L-120,100 L-120,300 L178,300 Z" fill="#0E0D17" stroke="#57e32c" stroke-width="2.6"/></g></g>
    <g transform="rotate(315 100 100)"><g transform="rotate(26 178 100)"><path d="M178,100 L-120,100 L-120,300 L178,300 Z" fill="#0E0D17" stroke="#57e32c" stroke-width="2.6"/></g></g>
  </g>

  <!-- Esquinas AF (coordenadas exactas de afCorners() en splash.js) -->
  <path d="M78,66 L66,66 L66,78"    fill="none" stroke="#57e32c" stroke-width="3.2"/>
  <path d="M122,66 L134,66 L134,78" fill="none" stroke="#57e32c" stroke-width="3.2"/>
  <path d="M78,134 L66,134 L66,122" fill="none" stroke="#57e32c" stroke-width="3.2"/>
  <path d="M122,134 L134,134 L134,122" fill="none" stroke="#57e32c" stroke-width="3.2"/>

  <!-- Wordmark, como en el splash -->
  <text x="100" y="106" text-anchor="middle" font-family="Inter, Helvetica, Arial, sans-serif"
        font-weight="700" font-size="17" fill="#ffffff">Focus.</text>
</svg>
